<svg width="165" height="21" viewBox="0 0 165 21" fill="none" xmlns="http://www.w3.org/2000/svg">
<g clip-path="url(#clip0_1781_261)">
<path d="M18.3789 1.7373C16.7448 1.7373 15.1389 2.15236 13.7396 2.9554C12.3685 2.17642 10.7625 1.7373 9.13156 1.7373C4.09465 1.7373 0 5.66828 0 10.5076C0 15.3468 4.09465 19.2808 9.13156 19.2808C10.7594 19.2808 12.3591 18.8688 13.7553 18.0718C15.1514 18.8688 16.7511 19.2808 18.3789 19.2808C23.4159 19.2808 27.5105 15.3468 27.5105 10.5076C27.5105 5.66828 23.4159 1.7373 18.3789 1.7373ZM13.7553 17.1996C12.3121 16.2702 11.2321 14.9739 10.6123 13.4911L14.1716 16.9108C14.037 17.0101 13.8961 17.1063 13.7553 17.1996ZM14.8196 16.3815L10.1364 11.8851C10.055 11.4339 10.0143 10.9737 10.0143 10.5076C10.0143 10.3993 10.0175 10.291 10.0206 10.1827L15.6054 15.5694C15.3643 15.8581 15.1014 16.1288 14.8196 16.3815ZM16.1125 14.9077L10.1364 9.14511C10.2147 8.709 10.3274 8.28492 10.4777 7.87288L16.7135 13.8641C16.5382 14.225 16.3379 14.5739 16.1125 14.9077ZM17.0485 13.037L10.8251 7.0548C10.9973 6.70892 11.1945 6.37508 11.4168 6.05326L17.3678 11.7708C17.2958 12.2039 17.1894 12.6279 17.0485 13.037ZM11.9239 5.39459C12.1712 5.10585 12.4405 4.83216 12.7316 4.5735L17.3208 8.98269C17.4179 9.47895 17.468 9.98724 17.468 10.5076C17.468 10.5767 17.468 10.6459 17.4649 10.7181L11.9239 5.39459ZM13.3859 4.05318C13.5017 3.96897 13.6238 3.88776 13.7459 3.80656C15.142 4.68779 16.1908 5.92092 16.8137 7.34353L13.3859 4.05318ZM0.766963 10.5076C0.766963 6.06529 4.50787 2.47117 9.13156 2.47117C10.5152 2.47117 11.8425 2.78095 13.0478 3.40353C10.6624 5.0457 9.27869 7.67738 9.27869 10.5076C9.27869 13.3377 10.6937 15.9694 13.0478 17.6116C11.8394 18.2342 10.4839 18.544 9.13156 18.544C4.50787 18.547 0.766963 14.9528 0.766963 10.5076ZM18.3789 18.547C16.9953 18.547 15.668 18.2372 14.4627 17.6146C16.8481 15.9724 18.2318 13.3408 18.2318 10.5106C18.2318 7.68039 16.8481 5.0457 14.4627 3.40654C15.6711 2.78396 16.9953 2.47418 18.3789 2.47418C23.0026 2.47418 26.7435 6.0683 26.7435 10.5106C26.7467 14.9528 23.0058 18.547 18.3789 18.547Z" fill="#051A63"/>
<path d="M43.2714 4.55694C46.4185 4.55694 48.8687 6.99738 48.8687 10.3233C48.8687 13.6276 46.4185 16.0897 43.2714 16.0897C41.6529 16.0897 40.4166 15.4418 39.5849 14.4483V15.7873H36.6177V0.0215968H39.5849V6.1767C40.4166 5.18325 41.6529 4.55694 43.2714 4.55694ZM42.7544 13.5412C44.6201 13.5412 45.9464 12.2022 45.9464 10.3017C45.9464 8.42277 44.6201 7.10537 42.7544 7.10537C40.9561 7.10537 39.5174 8.42277 39.5174 10.3017C39.5174 12.2022 40.9561 13.5412 42.7544 13.5412ZM49.6835 15.7873V0.0215968H52.6507V15.7873H49.6835ZM62.1649 4.85929H65.1321V15.7873H62.1649V14.4051C61.4006 15.377 60.1643 16.0897 58.5233 16.0897C55.5336 16.0897 54.0275 14.1675 54.0275 11.2304V4.85929H56.9948V10.6904C56.9948 12.3534 57.7815 13.4332 59.4225 13.4332C61.1084 13.4332 62.1649 12.1806 62.1649 10.2369V4.85929ZM72.1062 16.0897C68.4646 16.0897 65.9245 13.7788 65.9245 10.3233C65.9245 7.06217 68.3072 4.55694 71.8814 4.55694C75.6129 4.55694 77.7484 7.04058 77.7484 10.1721C77.7484 10.5177 77.7484 10.8416 77.6809 11.1872H68.8467C69.049 12.591 70.0831 13.6708 72.1511 13.6708C73.5898 13.6708 74.4664 13.0445 74.916 12.2238L77.591 12.9797C76.9391 14.4051 75.0959 16.0897 72.1062 16.0897ZM68.8467 9.39463H74.8486C74.7137 8.05563 73.6347 6.97578 71.8589 6.97578C70.128 6.97578 69.0041 8.14201 68.8467 9.39463ZM83.0365 16.0897C80.2267 16.0897 78.0687 14.4915 77.5067 12.7205L80.1817 11.9647C80.5638 13.0013 81.6428 13.7788 83.1489 13.7788C84.2953 13.7788 85.0371 13.2605 85.0371 12.6558C85.0371 12.1158 84.61 11.8135 83.7783 11.5759L80.8785 10.7552C79.2601 10.3017 78.0687 9.39463 78.0687 7.83966C78.0687 6.00393 80.1367 4.55694 82.6319 4.55694C85.0821 4.55694 86.9478 5.67997 87.6672 7.32133L85.0371 8.05563C84.6325 7.36453 83.8008 6.78141 82.6094 6.78141C81.6878 6.78141 80.9909 7.25654 80.9909 7.77487C80.9909 8.20681 81.3056 8.46597 81.935 8.63874L84.7674 9.41623C86.4758 9.89136 87.9594 10.5609 87.9594 12.5262C87.9594 14.5779 85.9363 16.0897 83.0365 16.0897ZM95.2931 13.1309L96.0124 15.4418C95.1133 15.7873 94.304 15.9601 93.3599 15.9601C90.7524 15.9601 89.561 14.4051 89.561 12.051V7.36453H87.6503V4.85929H89.561V1.31741H92.5507V4.85929H95.8776V7.36453H92.5507V12.051C92.5507 12.9365 93.0003 13.4332 93.9444 13.4332C94.4614 13.4332 94.8435 13.3469 95.2931 13.1309ZM99.5922 6.47906C100.267 5.20484 101.57 4.47055 103.346 4.70811V7.38613C100.918 7.01898 99.5922 8.09882 99.5922 11.036V15.7873H96.625V4.85929H99.5922V6.47906ZM105.352 3.32592C104.363 3.32592 103.577 2.59162 103.577 1.64136C103.577 0.734293 104.363 0 105.352 0C106.341 0 107.128 0.734293 107.128 1.64136C107.128 2.59162 106.341 3.32592 105.352 3.32592ZM103.824 15.7873V4.85929H106.814V15.7873H103.824ZM114.979 4.55694C117.946 4.55694 119.452 6.47906 119.452 9.39463V15.7873H116.485V9.93455C116.485 8.2716 115.698 7.21335 114.057 7.21335C112.394 7.21335 111.315 8.46597 111.315 10.3881V15.7873H108.348V4.85929H111.315V6.24149C112.102 5.26963 113.338 4.55694 114.979 4.55694ZM129.349 4.85929H132.316V15.3986C132.316 18.4437 130 20.625 126.449 20.625C123.661 20.625 121.908 19.394 120.964 17.7526L123.549 16.8671C124.133 17.7526 125.078 18.2709 126.516 18.2709C128.382 18.2709 129.326 17.0183 129.349 15.3986V14.0812C128.494 15.0962 127.258 15.6577 125.752 15.6577C122.493 15.6577 120.132 13.2173 120.132 10.1073C120.132 6.82461 122.493 4.55694 125.752 4.55694C127.258 4.55694 128.494 5.11846 129.349 6.13351V4.85929ZM126.269 13.0877C128.09 13.0877 129.416 11.8783 129.416 10.1073C129.416 8.35798 128.09 7.12696 126.269 7.12696C124.381 7.12696 123.077 8.33639 123.077 10.1073C123.077 11.8783 124.381 13.0877 126.269 13.0877ZM143.252 16.0897C139.768 16.0897 137.205 13.5844 137.205 10.3017C137.205 7.04058 139.768 4.55694 143.229 4.55694C146.376 4.55694 148.332 6.50065 148.782 8.14201L146.017 8.8979C145.769 7.99084 144.713 7.08377 143.229 7.08377C141.341 7.08377 140.127 8.57395 140.127 10.3017C140.127 12.0079 141.341 13.5412 143.229 13.5412C144.713 13.5412 145.769 12.699 146.017 11.7919L148.782 12.5262C148.332 14.1891 146.376 16.0897 143.252 16.0897ZM154.901 16.0897C151.395 16.0897 148.81 13.5844 148.81 10.3233C148.81 7.04057 151.395 4.55694 154.901 4.55694C158.408 4.55694 160.971 7.04057 160.971 10.3233C160.971 13.5844 158.408 16.0897 154.901 16.0897ZM154.901 13.498C156.79 13.498 158.093 12.1374 158.093 10.3233C158.093 8.50916 156.79 7.14856 154.901 7.14856C152.991 7.14856 151.709 8.50916 151.709 10.3233C151.709 12.1374 152.991 13.498 154.901 13.498ZM163.179 15.9601C162.145 15.9601 161.336 15.1826 161.336 14.1891C161.336 13.2605 162.145 12.5046 163.179 12.5046C164.191 12.5046 165 13.2605 165 14.1891C165 15.1826 164.191 15.9601 163.179 15.9601Z" fill="#051A63"/>
</g>
<defs>
<clipPath id="clip0_1781_261">
<rect width="165" height="20.625" fill="white"/>
</clipPath>
</defs>
</svg>
