<svg width="52" height="53" viewBox="0 0 52 53" fill="none" xmlns="http://www.w3.org/2000/svg">
<g filter="url(#filter0_d_586_1232)">
<rect x="4" y="3.5" width="44" height="44" rx="8" fill="url(#paint0_linear_586_1232)"/>
<path d="M26 37.1661C25.5908 37.1661 25.1887 37.0593 24.8333 36.8563L16.6667 32.1803C15.9445 31.7673 15.5 31.0043 15.5 30.1772V20.8228C15.5 19.9968 15.9445 19.2327 16.6667 18.8185L24.8333 14.1425C25.1887 13.9395 25.5908 13.8328 26 13.8328C26.4092 13.8328 26.8113 13.9395 27.1667 14.1425L35.3333 18.8185C35.6871 19.02 35.9813 19.3114 36.1861 19.6632C36.391 20.0149 36.4993 20.4146 36.5 20.8217V30.176C36.5 31.002 36.0555 31.7662 35.3333 32.1803L27.1667 36.8563C26.8113 37.0593 26.4092 37.1661 26 37.1661ZM26 37.1661V25.5M26 25.5L36.185 19.62M26 25.5L15.8145 19.62" stroke="#0090FF" stroke-width="2" stroke-linecap="round" stroke-linejoin="round"/>
</g>
<defs>
<filter id="filter0_d_586_1232" x="0" y="0.5" width="52" height="52" filterUnits="userSpaceOnUse" color-interpolation-filters="sRGB">
<feFlood flood-opacity="0" result="BackgroundImageFix"/>
<feColorMatrix in="SourceAlpha" type="matrix" values="0 0 0 0 0 0 0 0 0 0 0 0 0 0 0 0 0 0 127 0" result="hardAlpha"/>
<feOffset dy="1"/>
<feGaussianBlur stdDeviation="2"/>
<feComposite in2="hardAlpha" operator="out"/>
<feColorMatrix type="matrix" values="0 0 0 0 0 0 0 0 0 0 0 0 0 0 0 0 0 0 0.2 0"/>
<feBlend mode="normal" in2="BackgroundImageFix" result="effect1_dropShadow_586_1232"/>
<feBlend mode="normal" in="SourceGraphic" in2="effect1_dropShadow_586_1232" result="shape"/>
</filter>
<linearGradient id="paint0_linear_586_1232" x1="26" y1="3.5" x2="26" y2="47.5" gradientUnits="userSpaceOnUse">
<stop stop-color="#FCFCFD"/>
<stop offset="1" stop-color="#F0F1F4"/>
</linearGradient>
</defs>
</svg>
